<svg id="Layer_8" data-name="Layer 8" xmlns="http://www.w3.org/2000/svg" viewBox="0 0 500 500"><defs><style>.cls-1{fill:none;stroke:#60a3fa;stroke-miterlimit:10;stroke-width:4px;}</style></defs><path class="cls-1" d="M366.11,167.25a5.22,5.22,0,0,0-7.38.43,5.1,5.1,0,0,0-1.09,1.92L349.74,199a9.66,9.66,0,0,1-6,6.17,19.19,19.19,0,0,1-12.34.53c-8.21-2.2-14.07-9.15-12.5-15l7.84-29.13a4.76,4.76,0,0,0,0-1.41,5.21,5.21,0,0,0-5.16-5.29,5.28,5.28,0,0,0-2.47.58,48,48,0,0,0-32,59.86,46.16,46.16,0,0,0,1.8,4.93l-47.07,47.07-23.58,23.58L175.5,333.7a47.85,47.85,0,0,0-47.95,73.68,5.23,5.23,0,0,0,8.89-.37l13.23-23.74c3-5.23,11.87-6.28,19.4-2s11.4,12.34,8.47,17.62l-11.92,22a5.23,5.23,0,0,0,4.92,7.74,47.85,47.85,0,0,0,41-66.57l38.91-38.91L274,299.34l50.72-50.72a47.85,47.85,0,0,0,41.42-81.37Z"/><path class="cls-1" d="M343.59,374.76H318.27a1,1,0,0,1-.85-.49l-12.66-21.93a1,1,0,0,1,0-1l12.66-21.92a1,1,0,0,1,.85-.49h25.32a1,1,0,0,1,.84.49l12.66,21.92a1,1,0,0,1,0,1l-12.66,21.93A1,1,0,0,1,343.59,374.76Z"/><path class="cls-1" d="M330.93,364a12.1,12.1,0,1,1,8.55-3.55A12,12,0,0,1,330.93,364Z"/><path class="cls-1" d="M295.7,402.7H270.38a1,1,0,0,1-.84-.49l-12.66-21.93a.94.94,0,0,1,0-1l12.66-21.93a1,1,0,0,1,.84-.49H295.7a1,1,0,0,1,.85.49l12.66,21.93a1,1,0,0,1,0,1l-12.66,21.93A1,1,0,0,1,295.7,402.7Z"/><path class="cls-1" d="M283,391.89a12.09,12.09,0,1,1,8.56-3.54A12,12,0,0,1,283,391.89Z"/></svg>