<svg xmlns="http://www.w3.org/2000/svg" viewBox="0 0 500 500"><defs><style>.cls-1{fill:#60a3fa;stroke:#60a3fa;stroke-miterlimit:10;stroke-width:2px;}</style></defs><g id="Layer_5" data-name="Layer 5"><path class="cls-1" d="M300.87,163.75a58.34,58.34,0,0,0-58.27-58.28h-7.77A50.57,50.57,0,0,0,184.32,156V390.92a3.62,3.62,0,0,0,7.23,0V316.29A70.54,70.54,0,1,0,268.1,216.06,58.27,58.27,0,0,0,300.87,163.75Zm-58,51H210.58a3.62,3.62,0,0,0,0,7.23h44.33a63.37,63.37,0,1,1-63.36,63.37V156a43.32,43.32,0,0,1,43.28-43.28h7.77a51,51,0,0,1,.31,102.08Z"/></g></svg>