<svg id="Layer_13" data-name="Layer 13" xmlns="http://www.w3.org/2000/svg" viewBox="0 0 500 500"><defs><style>.cls-1{fill:none;stroke:#60a3fa;stroke-miterlimit:10;stroke-width:4px;}</style></defs><path class="cls-1" d="M134.83,266.78a6.69,6.69,0,0,0-4.45,2.07L99.55,300a6.62,6.62,0,0,0,0,9.31l30.83,31.15a6.62,6.62,0,0,0,9.6-9.13l-.18-.18-19.66-19.87h41.6a6.63,6.63,0,0,0,.18-13.25H120.14l19.66-19.86a6.63,6.63,0,0,0-5-11.39Zm229.41,0a6.63,6.63,0,0,0-4,11.39L379.86,298H337.64a6.63,6.63,0,0,0,.62,13.25h41.6L360.2,331.15a6.62,6.62,0,1,0,9.24,9.49l.18-.18,30.83-31.15a6.62,6.62,0,0,0,0-9.31l-30.83-31.15A6.68,6.68,0,0,0,364.24,266.78ZM103.58,355.67a6.62,6.62,0,0,0-5.9,6.72v50.19a6.62,6.62,0,0,0,6.63,6.62H395.69a6.62,6.62,0,0,0,6.63-6.62V362.39a6.63,6.63,0,0,0-13.25-.18V406H357.2V384.12a6.62,6.62,0,0,0-6.48-6.76,6.33,6.33,0,0,0-.87,0,6.6,6.6,0,0,0-5.89,6.72V406H308.67V379.05a6.62,6.62,0,0,0-6.52-6.72h-.21a6.62,6.62,0,0,0-6.51,6.72h0V406H256.62V384.12a6.62,6.62,0,0,0-6.48-6.76,6.12,6.12,0,0,0-.86,0,6.61,6.61,0,0,0-5.9,6.72V406H204.57V379.05a6.62,6.62,0,0,0-6.51-6.72h-.21a6.62,6.62,0,0,0-6.52,6.72h0V406H156V384.12a6.62,6.62,0,1,0-13.24,0V406H110.93V362.39a6.62,6.62,0,0,0-6.48-6.76A6.33,6.33,0,0,0,103.58,355.67Z"/></svg>