<svg id="Layer_12" data-name="Layer 12" xmlns="http://www.w3.org/2000/svg" viewBox="0 0 500 500"><defs><style>.cls-1{fill:none;stroke:#60a3fa;stroke-miterlimit:10;stroke-width:4px;}</style></defs><path class="cls-1" d="M249.14,245.65A56.44,56.44,0,1,1,193,302.42v-.65a55.81,55.81,0,0,1,55.51-56.12Z"/><path class="cls-1" d="M173.82,419.2c17.81-31.32,51.63-49.11,85.55-45.11,41.63,4.91,62.35,40.35,64.51,44.18"/><path class="cls-1" d="M380,187.59a47,47,0,1,1-46.69,47.23v-.54a46.44,46.44,0,0,1,46.18-46.69Z"/><path class="cls-1" d="M317.28,332c14.83-26.06,43-40.87,71.19-37.54,34.64,4.08,51.88,33.57,53.68,36.77"/><path class="cls-1" d="M120.53,188a47,47,0,1,1-46.69,47.23v-.54A46.44,46.44,0,0,1,120,188Z"/><path class="cls-1" d="M57.85,332.43c14.83-26.07,43-40.87,71.19-37.54,34.64,4.08,51.88,33.57,53.68,36.76"/></svg>