<?xml version="1.0" encoding="UTF-8"?><svg id="a" xmlns="http://www.w3.org/2000/svg" viewBox="0 0 500 500"><defs><style>.b{fill:none;stroke:#60a3fa;stroke-miterlimit:10;stroke-width:6px;}</style></defs><g><path class="b" d="M156.62,239.72c-2.46,0-4.46,2-4.46,4.46v20.65c0,2.46,2,4.46,4.46,4.46h20.65c2.46,0,4.46-2,4.46-4.46v-20.65c0-2.46-2-4.46-4.46-4.46h-20.65Z"/><path class="b" d="M198.18,269.29h20.65c2.46,0,4.46-2,4.46-4.46v-20.65c0-2.46-1.99-4.46-4.46-4.46h-20.65c-2.46,0-4.46,2-4.46,4.46v20.65c0,2.46,2,4.46,4.46,4.46h0Z"/><path class="b" d="M344.78,197.57s-.08,0-.11,0h-98.89c-3.45,0-6.24,2.8-6.24,6.24l.07,98.54m-.07-18.56h-103.73V129.23h42.46v50.3c0,2.34,1.3,4.48,3.39,5.55,.89,.46,1.87,.69,2.85,.69,1.28,0,2.55-.39,3.62-1.16l10.52-7.49,10.51,7.49c2.18,1.55,5.08,1.55,7.24,0l10.52-7.49,10.51,7.49c1.91,1.36,4.41,1.53,6.49,.46,2.07-1.07,3.37-3.21,3.37-5.55v-50.3h43.06l.34,67.92,12.97,.23-.83-74.4c0-3.44-2.8-6.24-6.24-6.24H129.55c-3.44,0-6.24,2.8-6.24,6.24v167.04c0,3.44,2.8,6.24,6.24,6.24h109.97v80.8c0,3.45,2.8,6.24,6.24,6.24h134.16c3.45,0,6.24-2.8,6.24-6.24V239.07s0-.08-.01-.13h0c0-.37-.04-.74-.11-1.1v-.03c-.08-.35-.19-.69-.32-1.02-.04-.1-.09-.2-.13-.3-.11-.25-.24-.49-.38-.72-.06-.09-.11-.18-.17-.27-.21-.3-.44-.59-.7-.86l-35.27-35.27c-.27-.27-.56-.5-.86-.71-.09-.06-1.6-1.28-1.69-1.34m39.62,41.16l-40.55-.35,.12-42.32"/><path class="b" d="M275.64,263.74h6.86v6.85h-6.86v-6.85Z"/><path class="b" d="M282.5,306.36h-6.86v-6.85h6.86v6.85Z"/></g><line class="b" x1="292.08" y1="265.96" x2="346.3" y2="265.96"/><line class="b" x1="292.08" y1="302.8" x2="342.82" y2="302.8"/><path class="b" d="M282.5,339.5h-6.86v-6.85h6.86v6.85Z"/><line class="b" x1="292.08" y1="335.93" x2="342.82" y2="335.93"/></svg>