<?xml version="1.0" encoding="UTF-8"?><svg id="a" xmlns="http://www.w3.org/2000/svg" viewBox="0 0 500 500"><defs><style>.b{fill:none;stroke:#60a3fa;stroke-miterlimit:10;stroke-width:6px;}</style></defs><g><path class="b" d="M186.85,262.06c-2.08,0-3.77,1.69-3.77,3.77v17.43c0,2.08,1.69,3.77,3.77,3.77h17.43c2.08,0,3.77-1.69,3.77-3.77v-17.43c0-2.08-1.69-3.77-3.77-3.77h-17.43Z"/><path class="b" d="M221.95,287.03h17.43c2.08,0,3.77-1.69,3.77-3.77v-17.43c0-2.08-1.68-3.77-3.76-3.77h-17.44c-2.08,0-3.77,1.69-3.77,3.77v17.43c0,2.08,1.69,3.77,3.77,3.77h0Z"/><path class="b" d="M345.74,226.46s-.07,0-.1,0h-83.51c-2.91,0-5.27,2.36-5.27,5.27l.06,83.21m-.06-15.67h-87.59V168.75h35.85v42.48c0,1.97,1.1,3.78,2.86,4.69,.75,.39,1.58,.59,2.41,.59,1.08,0,2.15-.33,3.06-.98l8.89-6.33,8.87,6.33c1.84,1.31,4.29,1.31,6.12,0l8.89-6.33,8.87,6.33c1.61,1.14,3.72,1.3,5.48,.39,1.75-.9,2.85-2.71,2.85-4.69v-42.48h36.36l.29,57.36,10.96,.2-.7-62.82c0-2.91-2.37-5.27-5.27-5.27H164c-2.91,0-5.27,2.37-5.27,5.27v141.06c0,2.91,2.37,5.27,5.27,5.27h92.87v68.23c0,2.91,2.36,5.27,5.27,5.27h113.29c2.91,0,5.27-2.36,5.27-5.27v-116.53s0-.07-.01-.11h0c0-.31-.03-.62-.09-.93v-.02c-.07-.29-.16-.58-.27-.86-.03-.09-.07-.17-.11-.25-.09-.21-.2-.41-.32-.61-.05-.08-.09-.15-.14-.23-.18-.25-.37-.5-.6-.73l-29.78-29.78c-.23-.23-.47-.42-.73-.6-.07-.05-1.35-1.08-1.43-1.13m33.46,34.76l-34.24-.29,.1-35.74"/><path class="b" d="M287.36,282.34h5.79v5.79h-5.79v-5.79Z"/><path class="b" d="M293.15,318.33h-5.79v-5.79h5.79v5.79Z"/></g><line class="b" x1="301.24" y1="284.22" x2="347.02" y2="284.22"/><line class="b" x1="301.24" y1="315.33" x2="344.09" y2="315.33"/><path class="b" d="M293.15,346.31h-5.79v-5.79h5.79v5.79Z"/><line class="b" x1="301.24" y1="343.3" x2="344.09" y2="343.3"/></svg>