<?xml version="1.0" encoding="UTF-8"?><svg id="a" xmlns="http://www.w3.org/2000/svg" viewBox="0 0 500 500"><defs><style>.b{fill:none;stroke:#60a3fa;stroke-miterlimit:10;stroke-width:3px;}</style></defs><path class="b" d="M186.85,262.06c-2.08,0-3.77,1.69-3.77,3.77v17.43c0,2.08,1.69,3.77,3.77,3.77h17.43c2.08,0,3.77-1.69,3.77-3.77v-17.43c0-2.08-1.69-3.77-3.77-3.77h-17.43Z"/><path class="b" d="M221.95,287.03h17.43c2.08,0,3.77-1.69,3.77-3.77v-17.43c0-2.08-1.68-3.77-3.76-3.77h-17.44c-2.08,0-3.77,1.69-3.77,3.77v17.43c0,2.08,1.69,3.77,3.77,3.77h0Z"/><path class="b" d="M345.74,226.46s-.07,0-.1,0h-83.51c-2.91,0-5.27,2.36-5.27,5.27l.06,83.21m-.06-15.67h-87.59V168.75h35.85v42.48c0,1.97,1.1,3.78,2.86,4.69,.75,.39,1.58,.59,2.41,.59,1.08,0,2.15-.33,3.06-.98l8.89-6.33,8.87,6.33c1.84,1.31,4.29,1.31,6.12,0l8.89-6.33,8.87,6.33c1.61,1.14,3.72,1.3,5.48,.39,1.75-.9,2.85-2.71,2.85-4.69v-42.48h36.36l.29,57.36,10.96,.2-.7-62.82c0-2.91-2.37-5.27-5.27-5.27H164c-2.91,0-5.27,2.37-5.27,5.27v141.06c0,2.91,2.37,5.27,5.27,5.27h92.87v68.23c0,2.91,2.36,5.27,5.27,5.27h113.29c2.91,0,5.27-2.36,5.27-5.27v-116.53s0-.07-.01-.11h0c0-.31-.03-.62-.09-.93v-.02c-.07-.29-.16-.58-.27-.86-.03-.09-.07-.17-.11-.25-.09-.21-.2-.41-.32-.61-.05-.08-.09-.15-.14-.23-.18-.25-.37-.5-.6-.73l-29.78-29.78c-.23-.23-.47-.42-.73-.6-.07-.05-1.35-1.08-1.43-1.13m33.46,34.76l-34.24-.29,.1-35.74"/><path class="b" d="M347.79,327.41l-19.06,24.66-8.1-7.61c-2.12-1.99-5.46-1.89-7.45,.24-1.99,2.12-1.89,5.46,.24,7.45l12.33,11.58c.98,.92,2.27,1.43,3.61,1.43,.14,0,.28,0,.42-.02,1.48-.12,2.84-.86,3.75-2.03l22.61-29.25c1.78-2.3,1.36-5.62-.95-7.4-2.31-1.78-5.62-1.36-7.4,.95h0Z"/><path class="b" d="M283.6,295.66h13.32c2.08,0,3.77-1.69,3.77-3.77v-13.32c0-2.08-1.69-3.77-3.77-3.77h-13.32c-2.08,0-3.77,1.69-3.77,3.77v13.32c0,2.08,1.69,3.77,3.77,3.77Zm3.77-13.32h5.79v5.79h-5.79v-5.79Z"/><path class="b" d="M312.25,274.81c-2.08,0-3.77,1.69-3.77,3.77s1.69,3.77,3.77,3.77h33.4c2.08,0,3.77-1.69,3.77-3.77s-1.69-3.77-3.77-3.77h-33.4Z"/><path class="b" d="M328.95,295.66c2.08,0,3.77-1.69,3.77-3.77s-1.69-3.77-3.77-3.77h-16.7c-2.08,0-3.77,1.69-3.77,3.77s1.69,3.77,3.77,3.77h16.7Z"/><path class="b" d="M300.68,308.78c0-2.08-1.69-3.77-3.77-3.77h-13.32c-2.08,0-3.77,1.69-3.77,3.77v13.32c0,2.08,1.69,3.77,3.77,3.77h13.32c2.08,0,3.77-1.69,3.77-3.77v-13.32Zm-7.53,9.55h-5.79v-5.79h5.79v5.79Z"/><path class="b" d="M345.64,319.21c2.08,0,3.77-1.69,3.77-3.77s-1.69-3.77-3.77-3.77h-33.4c-2.08,0-3.77,1.69-3.77,3.77s1.69,3.77,3.77,3.77h33.4Z"/></svg>