<svg xmlns="http://www.w3.org/2000/svg" viewBox="0 0 200 81.22"><g id="Layer_2" data-name="Layer 2"><g id="Layer_1-2" data-name="Layer 1"><path d="M62.47,0H24.21A25.28,25.28,0,0,0,0,18.67H62.47Z"/><path d="M198,15.33A25.57,25.57,0,0,0,186.7,3.05h0A23.55,23.55,0,0,0,177.47.19C174.86,0,137.56,0,137.56,0V18.67H175a6.16,6.16,0,0,1,4.38,1.92A6,6,0,0,1,181.17,25V56.32A6.28,6.28,0,0,1,175,62.51H156.39V31.23H137.56v50H175A25.27,25.27,0,0,0,198,66a23.5,23.5,0,0,0,2-9.64V25A23.58,23.58,0,0,0,198,15.33Z"/><path d="M107.05,0H68.78V18.67h62.47A25.28,25.28,0,0,0,107.05,0Z"/><path d="M78.85,50h33.57v6.31a6.31,6.31,0,0,1-6.2,6.21l-27.37,0L68.78,72.52v8.67c2.18-.1,39.08.21,40.09-.14a25.39,25.39,0,0,0,20.39-15.13,23.51,23.51,0,0,0,2-9.65v-25H78.85Z"/><path d="M25,62.48a6.31,6.31,0,0,1-6.21-6.21V50H52.41V31.23H0v25a23.51,23.51,0,0,0,2,9.65,25.39,25.39,0,0,0,20.4,15.13c1,.35,37.91,0,40.08.14V72.52L52.41,62.45Z"/></g></g></svg>