<svg id="Layer_14" data-name="Layer 14" xmlns="http://www.w3.org/2000/svg" viewBox="0 0 500 500"><defs><style>.cls-1{fill:none;stroke:#60a3fa;stroke-miterlimit:10;stroke-width:4px;}</style></defs><path class="cls-1" d="M301.87,358.94v8.86a5.26,5.26,0,0,1-5.39,5.39H283a5.26,5.26,0,0,1-5.39-5.39v-8.86a5.26,5.26,0,0,1,5.39-5.39h13.48C299.56,353.93,301.87,356.24,301.87,358.94Zm16.94-82.4c-6.54-5.77-15.4-8.47-26.56-8.47-10.4,0-18.87,2.31-25.42,7.32-5.77,4.23-8.85,10.78-9.24,18.86a3.45,3.45,0,0,0,3.47,3.47l15.4.38a5.79,5.79,0,0,0,5.39-3.85,9.28,9.28,0,0,1,2.69-4.62,11.74,11.74,0,0,1,8.09-3.08,12.49,12.49,0,0,1,9.24,3.47c2.31,2.31,3.08,5.39,3.08,9.62,0,3.85-.77,7.32-2.69,10a26.52,26.52,0,0,1-7.32,7.31q-9.24,6.36-12.71,11.55c-1.92,2.7-3.08,6.16-3.46,10.78-.39,2.31,1.54,3.85,3.85,3.85h16.56a4.1,4.1,0,0,0,3.85-3.46,28.47,28.47,0,0,1,1.54-6.16,16.37,16.37,0,0,1,6.16-6.55,39.07,39.07,0,0,0,13.47-11.55,28,28,0,0,0,5.39-16.17C328.44,290,325.36,282.32,318.81,276.54Zm-23.1-91.64M170.08,335s-11.17-4.62-16.56-7.7l-6.16-3.46-5.77,3.46A54,54,0,0,1,122,334.26a56.64,56.64,0,0,0,8.09-15l2.31-6.55-4.62-5c-15.41-16.56-23.49-36.58-23.49-57.76,0-51.21,48.51-93.18,107.81-93.18,45.43,0,84.32,24.26,100.11,58.53m90.21,105.15c0-52-48.9-94.34-109.35-94.34s-109.36,42.36-109.36,94.34,48.9,94.33,109.36,94.33a123.37,123.37,0,0,0,60.06-15.4l5.78-3.47,5.77,3.47a59.13,59.13,0,0,0,20,6.93,58.62,58.62,0,0,1-8.09-15.4l-2.31-6.55,4.62-5C394.28,362.41,402.37,342,402.37,320.44Z"/></svg>