<svg id="Layer_10" data-name="Layer 10" xmlns="http://www.w3.org/2000/svg" viewBox="0 0 500 500"><defs><style>.cls-1{fill:none;stroke:#60a3fa;stroke-miterlimit:10;stroke-width:4px;}</style></defs><path class="cls-1" d="M197.81,419.59l-19.3.14c-4.39,1.76-3.07,8.78,1.75,8.78H315.35c4.82,0,6.14-7,1.75-8.78l-18.86-.14V379.38H197.81Z"/><path class="cls-1" d="M415.79,176.76a17.85,17.85,0,0,0-12.72-5.27H96.93a22,22,0,0,0-5.26.88,21.78,21.78,0,0,0-3.07,1.32,12.83,12.83,0,0,0-5.26,4.38,9.3,9.3,0,0,0-1.76,2.63c-.44.88-.87,2.2-1.31,3.07a22,22,0,0,0-.88,5.27V351.31a8.5,8.5,0,0,0,.44,3.51c0,.88.44,1.32.44,2.2l1.31,2.63c.44.44.44.87.88,1.31a11.61,11.61,0,0,0,2.19,2.63h0a23.51,23.51,0,0,0,3.95,3.07,18.08,18.08,0,0,0,8.33,2.2H403.07a16.73,16.73,0,0,0,8.33-2.2c.88-.43,1.75-1.31,2.63-1.75.88-.88,1.76-1.32,2.19-2.19l1.32-1.32a18.3,18.3,0,0,0,1.75-3.07,8.24,8.24,0,0,0,.88-3.51,9.61,9.61,0,0,0,.44-3.51V189A20.91,20.91,0,0,0,417.54,179C417.1,178.51,416.66,177.63,415.79,176.76Z"/></svg>