<svg id="Layer_3" data-name="Layer 3" xmlns="http://www.w3.org/2000/svg" viewBox="0 0 500 500"><defs><style>.cls-1{fill:none;stroke:#60a3fa;stroke-miterlimit:10;stroke-width:8px;}</style></defs><path class="cls-1" d="M291.3,321.92v8.86a5.26,5.26,0,0,1-5.39,5.39H272.44a5.26,5.26,0,0,1-5.39-5.39v-8.86a5.26,5.26,0,0,1,5.39-5.39h13.47C289,316.92,291.3,319.23,291.3,321.92Zm16.94-82.39c-6.54-5.78-15.4-8.48-26.56-8.48-10.4,0-18.87,2.31-25.42,7.32-5.77,4.24-8.85,10.78-9.24,18.87a3.45,3.45,0,0,0,3.47,3.46l15.4.39a5.79,5.79,0,0,0,5.39-3.85,9.2,9.2,0,0,1,2.7-4.62,11.67,11.67,0,0,1,8.08-3.08A12.48,12.48,0,0,1,291.3,253c2.31,2.31,3.08,5.39,3.08,9.63,0,3.85-.77,7.31-2.69,10a26.52,26.52,0,0,1-7.32,7.31q-9.24,6.36-12.7,11.56c-1.93,2.69-3.08,6.16-3.47,10.78-.38,2.31,1.54,3.85,3.85,3.85h16.56a4.1,4.1,0,0,0,3.85-3.47,28.62,28.62,0,0,1,1.54-6.16,16.29,16.29,0,0,1,6.16-6.54,39.2,39.2,0,0,0,13.47-11.56,28,28,0,0,0,5.4-16.17C317.87,253,314.79,245.3,308.24,239.53Zm-23.1-91.64M159.51,298s-11.17-4.62-16.56-7.7l-6.16-3.47L131,290.32a54.39,54.39,0,0,1-19.64,6.93,56.7,56.7,0,0,0,8.09-15l2.31-6.54-4.62-5c-15.41-16.56-23.49-36.58-23.49-57.76,0-51.21,48.51-93.18,107.81-93.18,45.44,0,84.32,24.26,100.11,58.53M391.8,283.42c0-52-48.9-94.34-109.35-94.34S173.1,231.44,173.1,283.42s48.9,94.33,109.35,94.33a123.34,123.34,0,0,0,60.06-15.4l5.78-3.46,5.77,3.46a58.7,58.7,0,0,0,20,6.93,58.92,58.92,0,0,1-8.09-15.4l-2.31-6.54,4.62-5C383.71,325.39,391.8,305,391.8,283.42Z"/></svg>