<?xml version="1.0" encoding="UTF-8"?><svg id="a" xmlns="http://www.w3.org/2000/svg" viewBox="0 0 500 500"><defs><style>.b{fill:#60a3fa;}</style></defs><path class="b" d="M260.32,287.77h-127.72c-3.58,0-7.02-1.41-9.55-3.94-2.53-2.53-3.96-5.96-3.96-9.54V139.78c0-3.58,1.42-7.02,3.96-9.55,2.53-2.53,5.97-3.96,9.55-3.96h218.56c3.58,0,7.02,1.42,9.55,3.96,2.53,2.53,3.96,5.97,3.96,9.55v78.9c0,1.61-1.3,2.91-2.91,2.91s-2.91-1.3-2.91-2.91v-78.9c0-2.04-.81-3.99-2.25-5.43-1.44-1.44-3.4-2.25-5.43-2.25H132.6c-4.25,0-7.69,3.44-7.69,7.69v134.51c.01,4.23,3.45,7.66,7.69,7.66h127.72c1.61,0,2.91,1.3,2.91,2.91s-1.31,2.91-2.91,2.91h0Z"/><path class="b" d="M191.14,200.45h-40.41c-1.61,0-2.91-1.3-2.91-2.91v-40.41c0-1.61,1.3-2.91,2.91-2.91h40.41c.77,0,1.51,.31,2.06,.85s.85,1.29,.85,2.06v40.41c0,.77-.31,1.51-.85,2.06s-1.29,.85-2.06,.85h0Zm-37.5-5.82h34.59v-34.59h-34.59v34.59Z"/><path class="b" d="M291.79,200.31c-5.94,0-11.64-2.35-15.85-6.54-4.2-4.2-6.57-9.9-6.57-15.84,0-5.94,2.36-11.64,6.56-15.84,4.2-4.2,9.9-6.56,15.84-6.56,5.94,0,11.64,2.37,15.84,6.57,4.2,4.21,6.55,9.91,6.54,15.85-.01,5.92-2.38,11.6-6.57,15.79-4.19,4.19-9.87,6.55-15.79,6.57Zm0-38.93c-4.4,0-8.61,1.73-11.73,4.83-3.11,3.1-4.86,7.32-4.87,11.71,0,4.4,1.74,8.61,4.84,11.72,3.11,3.11,7.32,4.86,11.72,4.86,4.4,0,8.61-1.74,11.72-4.85s4.86-7.32,4.86-11.72-1.74-8.6-4.84-11.7c-3.1-3.1-7.31-4.85-11.7-4.86h0Z"/><path class="b" d="M317.06,200.31c-5.33,.03-10.49-1.85-14.56-5.3-1.22-1.04-1.36-2.88-.32-4.1,1.05-1.22,2.88-1.37,4.11-.32,3.23,2.74,7.39,4.14,11.62,3.91,4.23-.23,8.21-2.07,11.12-5.15,2.91-3.08,4.54-7.15,4.54-11.39s-1.62-8.31-4.54-11.39c-2.91-3.08-6.89-4.92-11.12-5.15-4.23-.23-8.39,1.17-11.62,3.91-.59,.5-1.36,.75-2.13,.69-.77-.06-1.49-.43-1.99-1.02-1.04-1.23-.89-3.08,.34-4.12,5.57-4.74,13.11-6.45,20.18-4.6,7.07,1.85,12.8,7.05,15.33,13.91,2.53,6.86,1.55,14.52-2.62,20.53s-11.01,9.59-18.33,9.61h0Z"/><path class="b" d="M407.32,417.41c-.75,0-1.47-.3-2.01-.82l-10.22-9.87-10.25,9.87c-1.13,1.09-2.92,1.09-4.05,0l-10.22-9.87-10.22,9.87h0c-1.13,1.09-2.92,1.09-4.05,0l-10.13-9.87-10.22,9.87c-1.13,1.09-2.92,1.09-4.05,0l-10.22-9.87-10.22,9.87c-1.13,1.09-2.92,1.09-4.05,0l-10.25-9.87-10.22,9.87h0c-1.13,1.09-2.92,1.09-4.05,0l-10.25-9.87-10.25,9.87c-.84,.8-2.07,1.03-3.14,.58-1.08-.46-1.78-1.51-1.78-2.68V218.68c0-1.61,1.3-2.91,2.91-2.91h146.91c.77,0,1.51,.31,2.06,.85,.55,.54,.85,1.29,.85,2.06v195.82c0,1.17-.7,2.22-1.78,2.68-.36,.15-.75,.23-1.13,.23h0Zm-110.23-17.64c.75,0,1.47,.29,2.01,.82l10.25,9.87,10.22-9.87h0c1.13-1.09,2.92-1.09,4.05,0l10.22,9.87,10.25-9.87c1.13-1.09,2.92-1.09,4.05,0l10.22,9.87,10.19-9.87h0c1.13-1.09,2.92-1.09,4.05,0l10.25,9.87,10.22-9.87c1.13-1.09,2.92-1.09,4.05,0l7.31,7.07V221.59h-141.18v186.07l7.25-7.07c1.12-1.07,2.89-1.07,4.02,0l10.25,9.87,10.22-9.87h0c.58-.54,1.34-.83,2.12-.82h0Z"/><path class="b" d="M260.32,264.45h-112.56c-1.61,0-2.91-1.3-2.91-2.91s1.3-2.91,2.91-2.91h112.56c1.61,0,2.91,1.3,2.91,2.91s-1.31,2.91-2.91,2.91Z"/><path class="b" d="M168.93,245.2h-21.17c-1.61,0-2.91-1.3-2.91-2.91s1.3-2.91,2.91-2.91h21.17c1.61,0,2.91,1.3,2.91,2.91s-1.31,2.91-2.91,2.91Z"/><path class="b" d="M207.15,245.2h-21.11c-1.61,0-2.91-1.3-2.91-2.91s1.3-2.91,2.91-2.91h21.17c1.61,0,2.91,1.3,2.91,2.91s-1.3,2.91-2.91,2.91h-.06Z"/><path class="b" d="M245.94,245.2h-21.14c-1.61,0-2.91-1.3-2.91-2.91s1.31-2.91,2.91-2.91h21.14c1.61,0,2.91,1.3,2.91,2.91s-1.3,2.91-2.91,2.91h0Z"/><path class="b" d="M385.83,256.99h-56.95c-1.61,0-2.91-1.3-2.91-2.91s1.31-2.91,2.91-2.91h56.95c1.61,0,2.91,1.3,2.91,2.91s-1.3,2.91-2.91,2.91Z"/><path class="b" d="M385.83,281.92h-56.95c-1.61,0-2.91-1.3-2.91-2.91s1.31-2.91,2.91-2.91h56.95c1.61,0,2.91,1.3,2.91,2.91s-1.3,2.91-2.91,2.91Z"/><path class="b" d="M385.83,306.78h-56.95c-1.61,0-2.91-1.31-2.91-2.91s1.31-2.91,2.91-2.91h56.95c1.61,0,2.91,1.3,2.91,2.91s-1.3,2.91-2.91,2.91Z"/><path class="b" d="M385.83,331.76h-101.9c-1.61,0-2.91-1.3-2.91-2.91s1.3-2.91,2.91-2.91h101.9c1.61,0,2.91,1.3,2.91,2.91s-1.3,2.91-2.91,2.91Z"/><path class="b" d="M385.83,355.63h-101.9c-1.61,0-2.91-1.3-2.91-2.91s1.3-2.91,2.91-2.91h101.9c1.61,0,2.91,1.3,2.91,2.91s-1.3,2.91-2.91,2.91Z"/><path class="b" d="M339.66,379.57h-55.72c-1.61,0-2.91-1.3-2.91-2.91s1.3-2.91,2.91-2.91h55.72c1.61,0,2.91,1.3,2.91,2.91s-1.31,2.91-2.91,2.91Z"/><path class="b" d="M306.28,290.58c-.2,0-.42,.04-.69,.12-.26,.08-.52,.24-.78,.47-.46,.29-1.01,.56-1.67,.78-.65,.23-1.37,.34-2.16,.34-1.14,0-2.38-.19-3.7-.56-1.32-.38-2.68-.74-4.07-1.1-1.39-.36-2.75-.54-4.09-.54-.1,0-.2,.02-.3,.02,.39-.61,.79-1.22,1.06-1.96,.38-1.03,.56-2.16,.56-3.41,0-.98-.14-2.02-.42-3.11-.23-.92-.52-1.86-.82-2.82h9.22c.52,0,.96-.15,1.32-.47,.36-.31,.54-.73,.54-1.25,0-.49-.18-.92-.54-1.27-.36-.36-.8-.54-1.32-.54h-10.22c-.04-.18-.1-.34-.14-.51-.28-1.19-.42-2.38-.42-3.55,0-1.4,.27-2.66,.81-3.77,.54-1.11,1.32-1.99,2.35-2.65,1.03-.65,2.26-.98,3.7-.98,1.34,0,2.56,.25,3.65,.73,1.09,.49,2.01,1.18,2.76,2.06,.16,.16,.37,.29,.61,.39,.25,.1,.5,.15,.76,.15,.56,0,1.04-.2,1.45-.61s.61-.87,.61-1.4c0-.36-.15-.73-.44-1.13-.29-.39-.69-.77-1.18-1.13-.98-.92-2.21-1.62-3.68-2.11-1.47-.49-3.01-.73-4.61-.73-2.22,0-4.15,.47-5.78,1.4-1.63,.93-2.89,2.23-3.77,3.9s-1.32,3.61-1.32,5.83c0,1.27,.14,2.52,.42,3.72,.03,.13,.08,.26,.11,.39h-2.34c-.52,0-.96,.16-1.32,.49-.36,.33-.54,.73-.54,1.23,0,.52,.18,.96,.54,1.3,.36,.34,.8,.51,1.32,.51h3.32c.32,1.02,.62,2.04,.87,3.09,.28,1.18,.42,2.38,.42,3.63,0,1.11-.15,2.11-.44,2.99-.28,.83-.61,1.51-.99,2.08-.33,.07-.66,.11-.99,.2-.87,.21-1.77,.47-2.72,.76-.56,.2-.98,.48-1.27,.86s-.44,.79-.44,1.25,.15,.85,.44,1.18c.29,.33,.65,.49,1.08,.49,.36,0,.72-.11,1.08-.32,.36-.21,.8-.37,1.32-.47,.29-.1,.72-.21,1.27-.34,.56-.13,1.18-.26,1.89-.39,.7-.13,1.38-.18,2.03-.15,.82,0,1.75,.11,2.79,.32,1.05,.21,2.12,.47,3.23,.76,1.11,.29,2.21,.56,3.31,.78,1.09,.23,2.1,.36,3.01,.39,.69,0,1.46-.09,2.33-.27,.86-.18,1.66-.47,2.38-.86,.72-.26,1.27-.59,1.67-.98s.59-.88,.59-1.47c0-.42-.13-.82-.39-1.2-.26-.38-.68-.56-1.27-.56h0Z"/></svg>