<svg id="Layer_1" data-name="Layer 1" xmlns="http://www.w3.org/2000/svg" viewBox="0 0 500 500"><defs><style>.cls-1{fill:#60a3fa;}</style></defs><path class="cls-1" d="M317.43,290.15c-30.43,0-50.85-29.66-51.23-30-2.31-3.46-6.16-7.32-10-7.32-3.85.39-7.7,5.4-8.47,7.32-3.85,9.25-9.25,15.41-15.41,17.72-5,1.93-11.17,1.54-17-1.15A12.08,12.08,0,0,1,209.19,262l5-17.72c2.7-8.86,9.25-16.57,17.72-20l19.65-8.48c8.48-3.85,16.18-2.7,24.66-.77l53.16,12.71L351,277.82l-3.08,1.93C337.08,287.07,326.68,290.15,317.43,290.15Zm-60.86-46.23c5.78,0,11.56,3.86,16.95,10.79,1.15,1.93,28.89,42,66.64,19.65l-17-40.07-48.92-11.55c-8.48-1.55-13.48-2.32-19.26.38L235.38,232a23,23,0,0,0-12.71,14.64l-5,17.72a3.89,3.89,0,0,0,1.93,4.24c3.46,1.92,6.93,2.31,10,1.15,4.24-1.54,7.71-6.16,10.79-13.09v-.39c.77-1.16,6.16-11.56,15.79-12.33Z"/><path class="cls-1" d="M320.9,317.12l-31.59-44.31,14.26,5.78c.77.39,22.34,8.86,39.29-5.78l4.62-3.85,15,35.06ZM312,289.76l12.33,17.34L350.18,299l-6.55-15.79C332.46,290.54,320.52,290.92,312,289.76Z"/><path class="cls-1" d="M98.63,332.14l-33.9-13.48a4.4,4.4,0,1,1,3.46-8.09L93.62,321l50.08-122.5-79-32a4.4,4.4,0,1,1,3.46-8.09l87.06,35.44Z"/><path class="cls-1" d="M151.79,307.1l-41.22-16.18a4.4,4.4,0,0,1,3.47-8.09l33.12,13.1,30.44-70.88-33.9-14.26c-2.31-.77-3.08-3.46-2.31-5.77s3.46-3.09,5.77-2.32l42,17.72Z"/><path class="cls-1" d="M410.66,340.23,354,201.93l87.06-35.44a4.4,4.4,0,0,1,3.47,8.09l-79,32,50.08,122.5,25.81-10.4a4.4,4.4,0,1,1,3.46,8.09Z"/><path class="cls-1" d="M357.5,315.19l-37.37-86.68,42.38-17.72a4.4,4.4,0,0,1,3.46,8.09l-34.28,14.26L362.12,304l33.13-13.1a4.4,4.4,0,0,1,3.47,8.09Z"/><path class="cls-1" d="M318.59,341A16.73,16.73,0,0,1,307,336l-39.67-42.37a4.36,4.36,0,1,1,6.16-6.17l39.68,42a7.73,7.73,0,0,0,6.93,2.31,6.68,6.68,0,0,0,5.39-4.62,5.39,5.39,0,0,0-1.15-5.78l-28.89-36.21a4.39,4.39,0,0,1,6.93-5.39L331.3,316a14,14,0,0,1,2.31,13.87,15.67,15.67,0,0,1-11.94,10.4A7.31,7.31,0,0,1,318.59,341Z"/><path class="cls-1" d="M298.94,355.25a22.48,22.48,0,0,1-15.79-6.55l-33.52-35.05a4.36,4.36,0,0,1,6.17-6.16l33.51,35.05c3.08,3.47,7.71,4.62,12.33,3.85a12.86,12.86,0,0,0,9.25-8.47v-.39a4.26,4.26,0,0,1,8.09,2.7V341a20.66,20.66,0,0,1-15.41,14.25C302,354.87,300.48,355.25,298.94,355.25Z"/><path class="cls-1" d="M277.37,368h-1.15a24.25,24.25,0,0,1-15-7.32l-27.73-30.82a4.36,4.36,0,1,1,6.54-5.78l27.74,30.82a14.28,14.28,0,0,0,8.86,4.62c5,.39,9.63-2.7,13.48-8.86a4.23,4.23,0,0,1,7.32,4.24C290.85,365.65,283.15,368,277.37,368Z"/><path class="cls-1" d="M238.46,230.05h-1.15c-23.89-5.39-53.55-3.08-53.93-3.08a4.25,4.25,0,1,1-.77-8.47c1.15,0,31.2-2.7,56.62,3.08a4.07,4.07,0,0,1,3.09,5.39C242.32,228.9,240.39,230.05,238.46,230.05Z"/><path class="cls-1" d="M256.18,374.9a15.78,15.78,0,0,1-10.78-4.24l-13.1-12.32c-40.83-40.45-79-67-79.36-67a4.44,4.44,0,0,1,5-7.32,750.68,750.68,0,0,1,80.51,67.8l13.1,12.32a7.18,7.18,0,0,0,7.32,1.54,6.67,6.67,0,0,0,4.62-5,4.43,4.43,0,0,1,5-3.86c2.31.39,4.24,2.32,3.85,4.63v.38c-.77,5.78-4.62,10-10.4,11.94A19.06,19.06,0,0,1,256.18,374.9Z"/><path class="cls-1" d="M227.29,374.13a20.56,20.56,0,0,1-13.1-5l-35.44-31.59a20.7,20.7,0,0,1-6.16-19.64l3.08-12.72a4.4,4.4,0,0,1,8.48,2.32l-3.09,12.71a11,11,0,0,0,3.47,11.17L220,363a11.19,11.19,0,0,0,12.33,1.92l10.79-5c2.31-1.16,4.62,0,5.77,2.31s0,4.62-2.31,5.78l-10.78,5A30.12,30.12,0,0,1,227.29,374.13Z"/></svg>