<svg id="Layer_9" data-name="Layer 9" xmlns="http://www.w3.org/2000/svg" viewBox="0 0 500 500"><defs><style>.cls-1{fill:none;stroke:#60a3fa;stroke-miterlimit:10;stroke-width:4px;}</style></defs><path class="cls-1" d="M341.16,204H202.88a7.69,7.69,0,0,1,0-15.37H341.16a7.69,7.69,0,1,1,0,15.37Z"/><path class="cls-1" d="M341.16,241.33H202.88a7.68,7.68,0,0,1,0-15.36H341.16a7.68,7.68,0,1,1,0,15.36Z"/><path class="cls-1" d="M341.16,279.23H202.88a7.68,7.68,0,1,1,0-15.36H341.16a7.68,7.68,0,1,1,0,15.36Z"/><path class="cls-1" d="M341.16,316.62H202.88a7.68,7.68,0,1,1,0-15.36H341.16a7.68,7.68,0,1,1,0,15.36Z"/><path class="cls-1" d="M341.16,354H202.88a7.69,7.69,0,0,1,0-15.37H341.16a7.69,7.69,0,1,1,0,15.37Z"/><path class="cls-1" d="M341.16,391.91H202.88a7.69,7.69,0,0,1,0-15.37H341.16a7.69,7.69,0,1,1,0,15.37Z"/><path class="cls-1" d="M341.16,429.3H202.88a7.69,7.69,0,0,1,0-15.37H341.16a7.69,7.69,0,1,1,0,15.37Z"/><circle class="cls-1" cx="158.84" cy="196.26" r="7.68"/><circle class="cls-1" cx="158.84" cy="233.65" r="7.68"/><circle class="cls-1" cx="158.84" cy="271.55" r="7.68"/><circle class="cls-1" cx="158.84" cy="308.94" r="7.68"/><circle class="cls-1" cx="158.84" cy="346.33" r="7.68"/><circle class="cls-1" cx="158.84" cy="384.23" r="7.68"/><circle class="cls-1" cx="158.84" cy="421.61" r="7.68"/></svg>