<svg id="Layer_1" data-name="Layer 1" xmlns="http://www.w3.org/2000/svg" viewBox="0 0 700 700"><defs><style>.cls-1{fill:#60a3fa;}</style></defs><path class="cls-1" d="M170.1,153.89a5.6,5.6,0,0,0-4.9,5.78v45.15a61.5,61.5,0,0,0,0,122.5V540.47a5.6,5.6,0,1,0,11.2,0V327.32a61.5,61.5,0,0,0,0-122.5V159.67a5.6,5.6,0,0,0-6.3-5.78Zm179.2,0a5.6,5.6,0,0,0-4.9,5.78V372.82a61.5,61.5,0,0,0,0,122.5v45.15a5.6,5.6,0,1,0,11.2,0V495.32a61.5,61.5,0,0,0,0-122.5V159.67a5.6,5.6,0,0,0-6.3-5.78Zm179.2,0a5.61,5.61,0,0,0-4.9,5.78V288.82a61.5,61.5,0,0,0,0,122.5V540.47a5.6,5.6,0,1,0,11.2,0V411.32a61.5,61.5,0,0,0,0-122.5V159.67a5.6,5.6,0,0,0-6.3-5.78ZM170.8,215.67a50.4,50.4,0,1,1-50.4,50.4A50.32,50.32,0,0,1,170.8,215.67Zm358.4,84a50.4,50.4,0,1,1-50.4,50.4A50.32,50.32,0,0,1,529.2,299.67Zm-179.2,84a50.4,50.4,0,1,1-50.4,50.4A50.32,50.32,0,0,1,350,383.67Z"/></svg>