<svg id="Layer_1" data-name="Layer 1" xmlns="http://www.w3.org/2000/svg" viewBox="0 0 1059.76 863.25"><defs><style>.cls-1{fill:#6c9cd3;}</style></defs><path class="cls-1" d="M569.75,478.54A12.32,12.32,0,0,0,559,491.25V590.6c-69,6.25-123.23,64.22-123.23,134.78S490,853.9,559,860.16v469a12.32,12.32,0,1,0,24.64,0v-469c69-6.26,123.23-64.22,123.23-134.78S652.58,596.86,583.6,590.6V491.25a12.31,12.31,0,0,0-13.85-12.71Zm394.32,0a12.34,12.34,0,0,0-10.79,12.71v469c-69,6.26-123.22,64.22-123.22,134.78s54.25,128.52,123.22,134.78v99.35a12.33,12.33,0,1,0,24.66,0v-99.35c69-6.26,123.22-64.22,123.22-134.78s-54.25-128.52-123.22-134.78v-469a12.33,12.33,0,0,0-13.87-12.71Zm394.33,0a12.33,12.33,0,0,0-10.78,12.71V775.44c-69,6.26-123.23,64.22-123.23,134.78s54.25,128.52,123.23,134.78v284.19a12.32,12.32,0,1,0,24.64,0V1045c69-6.26,123.23-64.22,123.23-134.78s-54.25-128.52-123.23-134.78V491.25a12.31,12.31,0,0,0-13.86-12.71ZM571.29,614.48a110.9,110.9,0,1,1-110.91,110.9A110.71,110.71,0,0,1,571.29,614.48Zm788.65,184.84A110.9,110.9,0,1,1,1249,910.22,110.71,110.71,0,0,1,1359.94,799.32ZM965.61,984.16a110.9,110.9,0,1,1-110.9,110.9A110.71,110.71,0,0,1,965.61,984.16Z" transform="translate(-435.73 -478.44)"/></svg>