<svg id="Layer_1" data-name="Layer 1" xmlns="http://www.w3.org/2000/svg" viewBox="0 0 1920 1920"><defs><style>.cls-1{fill:#6c9cd3;stroke:#fff;stroke-miterlimit:10;stroke-width:5px;}</style></defs><path class="cls-1" d="M642.05,614.56A10.39,10.39,0,0,0,633,625.27V709c-58.11,5.27-103.8,54.1-103.8,113.54S574.85,930.77,633,936v395.12a10.38,10.38,0,1,0,20.76,0V936c58.11-5.27,103.81-54.1,103.81-113.54S711.83,714.23,653.72,709V625.27a10.37,10.37,0,0,0-11.67-10.71Zm332.19,0a10.39,10.39,0,0,0-9.09,10.71v395.12c-58.1,5.27-103.81,54.1-103.81,113.54s45.71,108.27,103.81,113.54v83.69a10.39,10.39,0,1,0,20.77,0v-83.69c58.1-5.27,103.81-54.1,103.81-113.54S1044,1025.66,985.92,1020.39V625.27a10.39,10.39,0,0,0-11.68-10.71Zm332.18,0a10.39,10.39,0,0,0-9.08,10.71V864.68c-58.11,5.27-103.8,54.09-103.8,113.54s45.69,108.26,103.8,113.54v239.4a10.38,10.38,0,1,0,20.76,0v-239.4c58.11-5.28,103.81-54.1,103.81-113.54S1376.21,870,1318.1,864.68V625.27a10.39,10.39,0,0,0-11.68-10.71ZM643.35,729.08a93.42,93.42,0,1,1-93.43,93.42A93.26,93.26,0,0,1,643.35,729.08Zm664.37,155.71a93.43,93.43,0,1,1-93.42,93.42A93.27,93.27,0,0,1,1307.72,884.79ZM975.53,1040.5a93.43,93.43,0,1,1-93.42,93.42A93.26,93.26,0,0,1,975.53,1040.5Z"/></svg>