<svg id="Layer_11" data-name="Layer 11" xmlns="http://www.w3.org/2000/svg" viewBox="0 0 500 500"><defs><style>.cls-1{fill:none;stroke:#60a3fa;stroke-miterlimit:10;stroke-width:4px;}</style></defs><path class="cls-1" d="M275.35,389.78a2,2,0,0,1-2,2h-46.7a2,2,0,0,1-2-2v-21.1a2,2,0,0,1,2-2h46.7a2,2,0,0,1,2,2Zm0-128.38a2,2,0,0,1,2-2h48.84c1.1,0,1.47-.73.82-1.61L251.18,154.46a1.38,1.38,0,0,0-2.36,0L173,257.79c-.65.88-.28,1.61.82,1.61h48.84a2,2,0,0,1,2,2v89.39a2,2,0,0,0,2,2h46.7a2,2,0,0,0,2-2Zm-50.7,167.38a2,2,0,0,0,2,2h46.7a2,2,0,0,0,2-2v-21.1a2,2,0,0,0-2-2h-46.7a2,2,0,0,0-2,2Z"/></svg>