<?xml version="1.0" encoding="utf-8"?>
<!-- Generator: Adobe Illustrator 26.2.0, SVG Export Plug-In . SVG Version: 6.00 Build 0)  -->
<svg version="1.1" xmlns="http://www.w3.org/2000/svg" xmlns:xlink="http://www.w3.org/1999/xlink" x="0px" y="0px"
	 viewBox="0 0 500 500" style="enable-background:new 0 0 500 500;" xml:space="preserve">
<style type="text/css">
	.st0{display:none;}
	.st1{display:inline;fill:none;stroke:#60A3FA;stroke-width:2;stroke-miterlimit:10;}
	.st2{fill:none;stroke:#60A3FA;stroke-width:3;stroke-miterlimit:10;}
</style>
<g id="Layer_11" class="st0">
	<path class="st1" d="M275.4,389.8c0,1.1-0.9,2-2,2h-46.7c-1.1,0-2-0.9-2-2v-21.1c0-1.1,0.9-2,2-2h46.7c1.1,0,2,0.9,2,2V389.8z
		 M275.4,261.4c0-1.1,0.9-2,2-2h48.8c1.1,0,1.5-0.7,0.8-1.6l-75.8-103.3c-0.4-0.7-1.2-0.9-1.9-0.5c-0.2,0.1-0.3,0.3-0.5,0.5
		L173,257.8c-0.6,0.9-0.3,1.6,0.8,1.6h48.8c1.1,0,2,0.9,2,2v89.4c0,1.1,0.9,2,2,2h46.7c1.1,0,2-0.9,2-2L275.4,261.4z M224.7,428.8
		c0,1.1,0.9,2,2,2h46.7c1.1,0,2-0.9,2-2v-21.1c0-1.1-0.9-2-2-2h-46.7c-1.1,0-2,0.9-2,2V428.8z"/>
</g>
<g id="Layer_2">
	<g>
		<path class="st2" d="M149.8,175.7h206c27.5,0,49.6,22.1,49.6,49.6v114.5c0,27.5-22.1,49.6-49.6,49.6h-206
			c-27.5,0-49.6-22.1-49.6-49.6V225.3C100.2,197.8,122.2,175.7,149.8,175.7L149.8,175.7z M225.5,229.1L225.5,229.1
			c-1.8,0.3-3.2,1.8-3.2,3.7V332c0,1.9,1.3,3.5,3.2,3.8c0.9,0.1,1.7,0,2.5-0.5l83.9-49.6c1.2-0.7,1.9-1.9,1.9-3.3
			c0-1.3-0.7-2.6-1.9-3.3L228,229.6C227.2,229.2,226.4,229,225.5,229.1L225.5,229.1z"/>
	</g>
</g>
</svg>
