<svg id="Layer_2" data-name="Layer 2" xmlns="http://www.w3.org/2000/svg" viewBox="0 0 500 500"><defs><style>.cls-1{fill:none;stroke:#60a3fa;stroke-miterlimit:10;stroke-width:2px;}</style></defs><path class="cls-1" d="M149.79,175.71h206a49.4,49.4,0,0,1,49.6,49.6V339.76a49.41,49.41,0,0,1-49.6,49.6h-206a49.4,49.4,0,0,1-49.59-49.6V225.31a49.4,49.4,0,0,1,49.59-49.6Zm75.71,53.41h0a3.81,3.81,0,0,0-3.22,3.7V332a3.8,3.8,0,0,0,5.72,3.34l83.94-49.6a3.81,3.81,0,0,0,0-6.55L228,229.6a3.83,3.83,0,0,0-2.5-.48Z"/></svg>