<?xml version="1.0" encoding="UTF-8"?><svg id="a" xmlns="http://www.w3.org/2000/svg" viewBox="0 0 500 500"><defs><style>.b{stroke-miterlimit:10;}.b,.c,.d{fill:none;stroke:#60a3fa;stroke-width:8px;}.c{stroke-miterlimit:35;}.d{stroke-linecap:round;stroke-miterlimit:35;}</style></defs><g><g><path class="b" d="M277.4,295.77c3.75,0,7.4,1.1,10.93,2.17,4.06,1.23,7.96,2.31,10.91,1.63,3.33-.76,6.29-3.49,9.43-6.39,2.64-2.44,5.37-4.96,8.6-6.52,3.3-1.6,7.02-2.19,10.61-2.76,4.17-.66,8.11-1.28,10.7-3.36,2.61-2.09,4.09-5.82,5.66-9.76,1.35-3.38,2.74-6.87,5.01-9.73,2.26-2.84,5.33-4.96,8.31-7.02,3.5-2.42,6.8-4.7,8.27-7.75,1.43-2.97,1.16-6.95,.87-11.16-.24-3.65-.5-7.43,.32-11.05,.79-3.47,2.62-6.68,4.38-9.79,2.13-3.73,4.13-7.26,4.13-10.75s-2.01-7.01-4.13-10.75c-1.77-3.11-3.6-6.32-4.38-9.79-.82-3.61-.56-7.39-.31-11.05,.29-4.21,.56-8.19-.87-11.16-1.47-3.05-4.77-5.33-8.27-7.74-2.97-2.06-6.05-4.18-8.31-7.02-2.27-2.86-3.67-6.35-5.01-9.73-1.57-3.94-3.05-7.67-5.66-9.76-2.59-2.07-6.52-2.7-10.69-3.36-3.6-.57-7.31-1.16-10.61-2.76-3.23-1.56-5.96-4.08-8.6-6.52-3.14-2.9-6.11-5.63-9.44-6.39-2.95-.67-6.86,.4-10.91,1.63-3.53,1.06-7.19,2.16-10.93,2.16s-7.4-1.1-10.93-2.17c-4.06-1.23-7.96-2.3-10.91-1.63-3.33,.76-6.29,3.49-9.43,6.39-2.64,2.44-5.37,4.96-8.6,6.52-3.3,1.6-7.02,2.19-10.61,2.76-4.16,.66-8.1,1.28-10.69,3.36-2.61,2.09-4.09,5.82-5.66,9.76-1.35,3.38-2.74,6.87-5.01,9.73-2.26,2.84-5.33,4.96-8.31,7.02-3.5,2.42-6.8,4.7-8.27,7.75-1.43,2.97-1.16,6.95-.87,11.16,.24,3.65,.5,7.43-.32,11.05-.79,3.47-2.62,6.68-4.38,9.79-2.13,3.73-4.13,7.26-4.13,10.75s2.01,7.01,4.13,10.75c1.77,3.11,3.6,6.32,4.38,9.79,.82,3.61,.56,7.39,.31,11.05-.29,4.21-.56,8.19,.87,11.16,1.47,3.05,4.77,5.33,8.27,7.75,2.98,2.06,6.05,4.18,8.31,7.02,2.27,2.86,3.67,6.35,5.01,9.73,1.57,3.94,3.05,7.67,5.66,9.76,2.59,2.08,6.52,2.7,10.69,3.36,3.59,.57,7.31,1.16,10.61,2.76,3.23,1.56,5.96,4.08,8.6,6.52,3.14,2.9,6.11,5.64,9.44,6.39,2.95,.68,6.85-.41,10.91-1.63,3.53-1.06,7.18-2.17,10.93-2.17h0Z"/><path class="b" d="M277.4,126.82c-42.16,0-76.45,34.42-76.45,76.73s34.29,76.72,76.45,76.72,76.45-34.42,76.45-76.73-34.29-76.73-76.45-76.73h0Z"/><path class="b" d="M277.03,231.31c-2.41,3.73-7.71,4.16-10.68,.86l-23.72-26.33c-1.14-1.27-1.04-3.23,.23-4.38,1.26-1.14,3.23-1.05,4.38,.23l22.47,24.94c.87,.97,2.42,.84,3.12-.25l34.42-53.39c.93-1.44,2.85-1.85,4.29-.93,1.44,.93,1.85,2.85,.93,4.29l-35.44,54.96Z"/></g><polyline class="b" points="240.31 292.04 225.58 331.61 244.06 327.56 251.86 340.27 266.88 300.12"/><polyline class="b" points="291.58 301.58 306.43 346.66 318.1 335.44 335.09 338.84 318.65 286.96"/></g><g><path class="d" d="M132.14,394.53l50.56-28.61c4.2-2.38,11.4-3.28,16.05-2.02l52.07,14.08c5.59,1.51,8.72,7.22,6.98,12.77l-.04,.12c-1.73,5.54-7.85,9.71-13.63,9.32l-42.63-2.91"/><path class="d" d="M258.83,391.59l72.76-11.88c5.26-.86,10.39,2.64,11.48,7.86l-.07-.33c1.08,5.2-1.95,11.18-6.82,13.39l-98.79,44.8c-4.41,2-11.89,3.62-16.73,3.62h-87.83"/><path class="c" d="M104.07,380.61v75.64h27.95v-75.64h-27.95Z"/></g></svg>
